<svg xmlns="http://www.w3.org/2000/svg" viewBox="0 0 1024 1024" width="1024" height="1024">
  <defs>
    <clipPath id="squircle-clip">
      <path d="M440.000,0.000L439.933,87.158L439.732,118.585L439.397,141.966L438.927,161.271L438.323,178.004L437.584,192.920L436.710,206.464L435.700,218.921L434.555,230.487L433.272,241.303L431.853,251.474L430.295,261.083L428.599,270.192L426.763,278.854L424.786,287.110L422.668,294.995L420.407,302.537L418.001,309.763L415.450,316.691L412.751,323.342L409.904,329.729L406.905,335.867L403.754,341.768L400.447,347.443L396.982,352.900L393.357,358.148L389.569,363.194L385.613,368.046L381.488,372.708L377.187,377.187L372.708,381.488L368.046,385.613L363.194,389.569L358.148,393.357L352.900,396.982L347.443,400.447L341.768,403.754L335.867,406.905L329.729,409.904L323.342,412.751L316.691,415.450L309.763,418.001L302.537,420.407L294.995,422.668L287.110,424.786L278.854,426.763L270.192,428.599L261.083,430.295L251.474,431.853L241.303,433.272L230.487,434.555L218.921,435.700L206.464,436.710L192.920,437.584L178.004,438.323L161.271,438.927L141.966,439.397L118.585,439.732L87.158,439.933L0.000,440.000L-87.158,439.933L-118.585,439.732L-141.966,439.397L-161.271,438.927L-178.004,438.323L-192.920,437.584L-206.464,436.710L-218.921,435.700L-230.487,434.555L-241.303,433.272L-251.474,431.853L-261.083,430.295L-270.192,428.599L-278.854,426.763L-287.110,424.786L-294.995,422.668L-302.537,420.407L-309.763,418.001L-316.691,415.450L-323.342,412.751L-329.729,409.904L-335.867,406.905L-341.768,403.754L-347.443,400.447L-352.900,396.982L-358.148,393.357L-363.194,389.569L-368.046,385.613L-372.708,381.488L-377.187,377.187L-381.488,372.708L-385.613,368.046L-389.569,363.194L-393.357,358.148L-396.982,352.900L-400.447,347.443L-403.754,341.768L-406.905,335.867L-409.904,329.729L-412.751,323.342L-415.450,316.691L-418.001,309.763L-420.407,302.537L-422.668,294.995L-424.786,287.110L-426.763,278.854L-428.599,270.192L-430.295,261.083L-431.853,251.474L-433.272,241.303L-434.555,230.487L-435.700,218.921L-436.710,206.464L-437.584,192.920L-438.323,178.004L-438.927,161.271L-439.397,141.966L-439.732,118.585L-439.933,87.158L-440.000,0.000L-439.933,-87.158L-439.732,-118.585L-439.397,-141.966L-438.927,-161.271L-438.323,-178.004L-437.584,-192.920L-436.710,-206.464L-435.700,-218.921L-434.555,-230.487L-433.272,-241.303L-431.853,-251.474L-430.295,-261.083L-428.599,-270.192L-426.763,-278.854L-424.786,-287.110L-422.668,-294.995L-420.407,-302.537L-418.001,-309.763L-415.450,-316.691L-412.751,-323.342L-409.904,-329.729L-406.905,-335.867L-403.754,-341.768L-400.447,-347.443L-396.982,-352.900L-393.357,-358.148L-389.569,-363.194L-385.613,-368.046L-381.488,-372.708L-377.187,-377.187L-372.708,-381.488L-368.046,-385.613L-363.194,-389.569L-358.148,-393.357L-352.900,-396.982L-347.443,-400.447L-341.768,-403.754L-335.867,-406.905L-329.729,-409.904L-323.342,-412.751L-316.691,-415.450L-309.763,-418.001L-302.537,-420.407L-294.995,-422.668L-287.110,-424.786L-278.854,-426.763L-270.192,-428.599L-261.083,-430.295L-251.474,-431.853L-241.303,-433.272L-230.487,-434.555L-218.921,-435.700L-206.464,-436.710L-192.920,-437.584L-178.004,-438.323L-161.271,-438.927L-141.966,-439.397L-118.585,-439.732L-87.158,-439.933L-0.000,-440.000L87.158,-439.933L118.585,-439.732L141.966,-439.397L161.271,-438.927L178.004,-438.323L192.920,-437.584L206.464,-436.710L218.921,-435.700L230.487,-434.555L241.303,-433.272L251.474,-431.853L261.083,-430.295L270.192,-428.599L278.854,-426.763L287.110,-424.786L294.995,-422.668L302.537,-420.407L309.763,-418.001L316.691,-415.450L323.342,-412.751L329.729,-409.904L335.867,-406.905L341.768,-403.754L347.443,-400.447L352.900,-396.982L358.148,-393.357L363.194,-389.569L368.046,-385.613L372.708,-381.488L377.187,-377.187L381.488,-372.708L385.613,-368.046L389.569,-363.194L393.357,-358.148L396.982,-352.900L400.447,-347.443L403.754,-341.768L406.905,-335.867L409.904,-329.729L412.751,-323.342L415.450,-316.691L418.001,-309.763L420.407,-302.537L422.668,-294.995L424.786,-287.110L426.763,-278.854L428.599,-270.192L430.295,-261.083L431.853,-251.474L433.272,-241.303L434.555,-230.487L435.700,-218.921L436.710,-206.464L437.584,-192.920L438.323,-178.004L438.927,-161.271L439.397,-141.966L439.732,-118.585L439.933,-87.158Z" transform="translate(512.0,512.0)"/>
    </clipPath>

    <linearGradient id="glass-bg" x1="1" y1="0" x2="0" y2="1">
      <stop offset="0" stop-color="#F2F4F7"/>
      <stop offset="1" stop-color="#F7EFE2"/>
    </linearGradient>

    <radialGradient id="upper-highlight" cx="0.78" cy="0.20" r="0.62">
      <stop offset="0" stop-color="#FFFFFF" stop-opacity="0.32"/>
      <stop offset="0.55" stop-color="#FFFFFF" stop-opacity="0.07"/>
      <stop offset="1" stop-color="#FFFFFF" stop-opacity="0"/>
    </radialGradient>

    <radialGradient id="lower-shade" cx="0.22" cy="0.95" r="0.7">
      <stop offset="0" stop-color="#1A1A1A" stop-opacity="0.06"/>
      <stop offset="1" stop-color="#1A1A1A" stop-opacity="0"/>
    </radialGradient>

    <filter id="frost-noise" x="0" y="0" width="100%" height="100%" filterUnits="userSpaceOnUse">
      <feTurbulence type="fractalNoise" baseFrequency="0.55" numOctaves="3" seed="7" stitchTiles="stitch" result="noise"/>
      <feColorMatrix in="noise" type="matrix" values="
          0 0 0 0 0.16
          0 0 0 0 0.16
          0 0 0 0 0.16
          0 0 0 0.22 0
      "/>
    </filter>

    <filter id="frost-highlight" x="0" y="0" width="100%" height="100%" filterUnits="userSpaceOnUse">
      <feTurbulence type="fractalNoise" baseFrequency="0.35" numOctaves="2" seed="11" stitchTiles="stitch" result="noise"/>
      <feColorMatrix in="noise" type="matrix" values="
          0 0 0 0 1
          0 0 0 0 1
          0 0 0 0 1
          0 0 0 0.14 -0.07
      "/>
    </filter>

    <filter id="bevel" x="-5%" y="-5%" width="110%" height="110%" filterUnits="objectBoundingBox">
      <feGaussianBlur in="SourceAlpha" stdDeviation="1" result="blur"/>
      <feOffset in="blur" dx="0" dy="1" result="offset"/>
      <feMerge>
        <feMergeNode in="offset"/>
        <feMergeNode in="SourceGraphic"/>
      </feMerge>
    </filter>
  </defs>

  <g clip-path="url(#squircle-clip)">
    <rect width="1024" height="1024" fill="url(#glass-bg)"/>
    <rect width="1024" height="1024" fill="url(#lower-shade)"/>
    <rect width="1024" height="1024" filter="url(#frost-highlight)"/>
    <rect width="1024" height="1024" filter="url(#frost-noise)"/>
    <rect width="1024" height="1024" fill="url(#upper-highlight)"/>
  </g>

  <g fill="#1A1A1A" transform="translate(265.600,603.184)">
    <path d="M61.12639671963096 0.0V-0.12629420809841108Q54.559097898513585 -0.8840594566888775 51.21230138390569 -2.5258841619682215Q47.865504869297794 -4.1677088672475655 47.170886724756535 -7.4513582778062535Q46.476268580215276 -10.735007688364941 47.61291645310098 -16.29195284469503L60.74751409533573 -78.04982060481805H74.38728856996413Q89.92147616606869 -78.04982060481805 105.13992824192722 -81.08088159917992Q120.35838031778576 -84.11194259354178 132.67206560738083 -90.67924141465916Q144.9857508969759 -97.24654023577654 152.37396207073294 -107.85525371604307Q159.76217324449001 -118.4639671963096 159.76217324449001 -133.61927216811893Q159.76217324449001 -143.21763198359815 156.0996412096361 -151.9319323423885Q152.43710917478217 -160.6462327011789 144.73316248077907 -167.5292670425423Q137.029215786776 -174.41230138390569 125.03126601742696 -178.39056893900565Q113.03331624807791 -182.3688364941056 96.48877498718606 -182.3688364941056H45.33962070732957V-182.2425422860072Q50.643977447462845 -181.4847770374167 53.16986160943107 -179.9060994361866Q55.69574577139929 -178.32742183495645 56.07462839569452 -174.98062532034857Q56.45351101998975 -171.63382880574065 55.06427473090723 -165.4454126089185L23.49072270630446 -16.923423885187084Q22.22778062532035 -10.735007688364941 20.396514607893387 -7.388211173757048Q18.565248590466428 -4.041414659149154 15.407893388006151 -2.462737057919016Q12.250538185545874 -0.8840594566888775 6.693593029215787 -0.12629420809841108V0.0ZM82.84900051255767 -182.2425422860072 94.46806765761148 -181.86365966171195Q108.86560738083034 -181.4847770374167 117.76934905176833 -174.91747821629934Q126.6730907227063 -168.35017939518195 130.77765248590467 -157.99405433111224Q134.88221424910301 -147.63792926704255 134.88221424910301 -135.6399794976935Q134.88221424910301 -120.73726294208099 128.12547411583802 -107.91840082009227Q121.36873398257305 -95.09953869810354 107.53951819579703 -87.14300358790365Q93.71030240902101 -79.18646847770374 72.49287544848795 -78.55499743721168L60.74751409533573 -78.17611481291645Z"/>
    <path d="M163.55099948744234 -40.54044079958996Q163.55099948744234 -29.047667862634547 167.02409021014864 -19.3861609431061Q170.49718093285495 -9.724654023577653 177.19077396207075 -3.978267555099949Q183.88436699128653 1.768118913377755 193.35643259866737 1.768118913377755Q207.24879548949258 1.768118913377755 217.85750896975912 -8.77744746283957Q228.46622245002564 -19.323013839056895 233.51799077396208 -38.7723218862122Q232.76022552537162 -34.73090722706304 231.87616606868272 -30.689492567913888Q230.99210661199385 -26.648077908764737 230.2343413634034 -22.606663249615583Q227.45586878523835 -9.219477191184009 231.6867247565351 -3.7256791389031267Q235.91758072783188 1.768118913377755 244.37929267042543 1.768118913377755Q252.20953357252694 1.768118913377755 259.7871860584316 -1.641824705279344Q267.36483854433624 -5.051768323936443 270.9010763710918 -10.48241927216812L270.77478216299335 -10.60871348026653Q268.75407483341877 -8.588006150691953 265.34413121476166 -7.07247565351102Q261.9341875961046 -5.556945156330087 258.52424397744744 -5.556945156330087Q254.3565351101999 -5.556945156330087 252.0200922603793 -8.335417734495131Q249.6836494105587 -11.113890312660175 251.19917990773962 -18.060071758072784L272.66919528446954 -118.4639671963096H264.3337775499744L248.04182470527934 -106.59231163505895Q247.15776524859047 -110.88631471040492 241.6008200922604 -115.55920041004613Q236.04387493593032 -120.23208610968734 222.90927729369554 -120.23208610968734Q209.14320861096874 -120.23208610968734 198.15561250640698 -113.34905176832393Q187.16801640184522 -106.46601742696053 179.46406970784216 -94.97324449000513Q171.76012301383906 -83.48047155304972 167.6555612506407 -69.33552024602768Q163.55099948744234 -55.190568939005644 163.55099948744234 -40.54044079958996ZM186.53654536135315 -35.10978985135828Q186.53654536135315 -46.097385955920046 188.2415171706817 -57.65330599692466Q189.94648898001026 -69.20922603792927 193.35643259866737 -79.94423372629421Q196.76637621732448 -90.67924141465915 201.94443874935934 -99.2672475653511Q207.12250128139416 -107.85525371604305 214.0686827268068 -112.8438749359303Q221.0148641722194 -117.83249615581754 229.85545873910814 -117.83249615581754Q237.05422860071758 -117.83249615581754 241.66396719630959 -114.54884674525886Q246.2737057919016 -111.26519733470016 247.91553049718095 -106.46601742696053L233.6442849820605 -39.53008713480267Q229.3502819067145 -23.743311122501282 221.0148641722194 -14.14495130702204Q212.67944643772427 -4.546591491542799 203.83885187083547 -4.546591491542799Q195.62972834443877 -4.546591491542799 191.08313685289596 -11.555920041004613Q186.53654536135315 -18.565248590466428 186.53654536135315 -35.10978985135828Z"/>
    <path d="M330.25935417734496 -119.60061506919529 293.7603280369041 -115.43290620194773V-115.30661199384932L298.18062532034855 -113.66478728856997Q303.23239364428497 -111.7703741670938 304.4321886212199 -109.5602255253716Q305.63198359815476 -107.35007688364942 304.4953357252691 -102.17201435161456L282.646437724244 0.0H304.6216299333675L320.5347001537673 -73.88211173757048Q324.0709379805228 -85.5011788826243 329.81732444900047 -94.53121476166069Q335.5637109174782 -103.56125064069708 342.95192209123525 -108.73931317273193Q350.3401332649923 -113.91737570476678 358.6755509994874 -113.91737570476678Q370.04202972834446 -113.91737570476678 372.7573552024603 -107.47637109174782Q375.47268067657615 -101.03536647872886 373.19938493080474 -90.67924141465915L358.4229625832906 -22.606663249615583Q355.51819579702715 -9.219477191184009 359.87534597642235 -3.7256791389031267Q364.23249615581756 1.768118913377755 372.6942080984111 1.768118913377755Q380.52444900051256 1.768118913377755 388.10210148641727 -1.641824705279344Q395.6797539723219 -5.051768323936443 399.2159917990774 -10.48241927216812L399.089697590979 -10.60871348026653Q397.0689902614044 -8.588006150691953 393.6590466427473 -7.07247565351102Q390.24910302409023 -5.556945156330087 386.8391594054331 -5.556945156330087Q382.6714505381855 -5.556945156330087 380.33500768836495 -8.335417734495131Q377.9985648385443 -11.113890312660175 379.5140953357253 -18.060071758072784L393.9116350589441 -85.24859046642747Q397.95304971809327 -103.6875448487955 390.4385443362378 -111.95981547924143Q382.92403895438235 -120.23208610968734 369.6631471040492 -120.23208610968734Q359.30702203997953 -120.23208610968734 349.70866222450024 -114.86458226550488Q340.110302409021 -109.4970784213224 332.5326499231163 -99.3303946694003Q324.95499743721166 -89.16371091747823 320.66099436186573 -74.63987698616094Z"/>
    <path d="M455.66950281906713 1.768118913377755Q464.51009738595593 1.768118913377755 471.83516145566375 -0.9472065607380831Q479.16022552537163 -3.662532034853921 484.7803177857509 -8.019682214249103Q490.4004100461302 -12.376832393644285 493.81035366478727 -17.302306509482317L493.6840594566889 -17.42860071758073Q490.5267042542286 -13.513480266529985 483.3910814966684 -9.030035879036392Q476.2554587391082 -4.546591491542799 466.65709892362895 -4.546591491542799Q458.4479753972322 -4.546591491542799 451.7543823680164 -9.219477191184009Q445.06078933880065 -13.892362890825218 441.1456688877499 -23.174987186058434Q437.2305484366991 -32.45761148129165 437.2305484366991 -46.476268580215276Q437.2305484366991 -57.716453100973865 439.4406970784213 -70.40902101486418Q441.65084572014354 -83.1015889287545 446.1342901076371 -94.34177344951308Q450.6177344951307 -105.58195797027166 457.4376217324449 -112.71758072783189Q464.2575089697591 -119.85320348539211 473.4769861609431 -119.85320348539211Q480.54946181445416 -119.85320348539211 483.3279343926192 -116.19067145053819Q486.10640697078423 -112.52813941568427 486.10640697078423 -106.0871348026653Q486.10640697078423 -98.38318810866222 483.45422860071756 -91.247565351102Q480.80205023065093 -84.11194259354178 475.6871348026653 -77.98667350076884Q470.57221937467966 -71.8614044079959 463.1208610968734 -66.99907739620707Q455.66950281906713 -62.13675038441825 446.19743721168635 -58.97939518195797L437.6094310609944 -56.07462839569452V-55.822039979497696L446.19743721168635 -58.474218349564325Q467.5411583803178 -65.0415171706817 480.1074320861097 -71.10363915940543Q492.6737057919016 -77.16576114812916 498.16750384418253 -83.79620707329575Q503.6613018964634 -90.42665299846233 503.6613018964634 -98.63577652485905Q503.6613018964634 -108.86560738083034 495.4521783700667 -114.54884674525884Q487.24305484366994 -120.23208610968734 473.4769861609431 -120.23208610968734Q460.59497693490516 -120.23208610968734 449.796822142491 -114.23311122501282Q438.9986673500769 -108.2341363403383 431.1052793439262 -97.75171706817017Q423.2118913377755 -87.26929779600205 418.8547411583803 -73.69267042542286Q414.49759097898516 -60.11604305484367 414.49759097898516 -44.96073808303434Q414.49759097898516 -30.058021527421836 419.8650948231676 -19.575602255253717Q425.2325986673501 -9.093182983085597 434.5783700666325 -3.662532034853921Q443.92414146591494 1.768118913377755 455.66950281906713 1.768118913377755Z"/>
  </g>
</svg>
